HIERARCHY
ROOT Hips
{
    OFFSET 0.000000 0.000000 0.000000
    CHANNELS 6 Xposition Yposition Zposition Zrotation Xrotation Yrotation
        JOINT Chest
        {
            OFFSET -0.000000 32.910728 -0.000000
            CHANNELS 3 Zrotation Xrotation Yrotation
            JOINT Neck
            {
                OFFSET -0.000000 24.872103 0.000000
                CHANNELS 3 Zrotation Xrotation Yrotation
                JOINT Head
                {
                    OFFSET -0.000000 10.694444 0.000000
                    CHANNELS 3 Zrotation Xrotation Yrotation
                    End Site
                    {
                        OFFSET -0.000000 16.527781 0.000000
                    }
                }
            }
            JOINT LeftCollar
            {
                OFFSET -0.000000 24.872103 0.000000
                CHANNELS 3 Zrotation Xrotation Yrotation
                JOINT LeftShoulder
                {
                    OFFSET 20.500000 -0.000000 0.000000
                    CHANNELS 3 Zrotation Xrotation Yrotation
                    JOINT LeftElbow
                    {
                        OFFSET 20.261999 0.000000 0.000000
                        CHANNELS 3 Zrotation Xrotation Yrotation
                        JOINT LeftWrist
                        {
                            OFFSET 25.372869 0.000000 0.000000
                            CHANNELS 3 Zrotation Xrotation Yrotation
                            End Site
                            {
                                OFFSET 0.000000 -14.583331 0.000000
                            }
                        }
                    }
                }
            }
            JOINT RightCollar
            {
                OFFSET -0.000000 24.872103 0.000000
                CHANNELS 3 Zrotation Xrotation Yrotation
                JOINT RightShoulder
                {
                    OFFSET -20.500000 0.000000 0.000000
                    CHANNELS 3 Zrotation Xrotation Yrotation
                    JOINT RightElbow
                    {
                        OFFSET -20.261999 0.000000 0.000000
                        CHANNELS 3 Zrotation Xrotation Yrotation
                        JOINT RightWrist
                        {
                            OFFSET -25.372869 0.000000 0.000000
                            CHANNELS 3 Zrotation Xrotation Yrotation
                            End Site
                            {
                                OFFSET -0.000000 -14.583331 0.000000
                            }
                        }
                    }
                }
            }
        }
    JOINT LeftHip
    {
        OFFSET 11.666668 0.000000 0.000000
        CHANNELS 3 Zrotation Xrotation Yrotation
        JOINT LeftKnee
        {
            OFFSET -0.000000 -37.459236 0.000000
            CHANNELS 3 Zrotation Xrotation Yrotation
            JOINT LeftAnkle
            {
                OFFSET -0.000000 -38.972313 0.000000
                CHANNELS 3 Zrotation Xrotation Yrotation
                End Site
                {
                    OFFSET -0.000000 -4.861111 16.527781
                }
            }
        }
    }
    JOINT RightHip
    {
        OFFSET -11.666668 0.000000 0.000000
        CHANNELS 3 Zrotation Xrotation Yrotation
        JOINT RightKnee
        {
            OFFSET -0.000000 -37.459236 0.000000
            CHANNELS 3 Zrotation Xrotation Yrotation
            JOINT RightAnkle
            {
                OFFSET -0.000000 -38.972313 0.000000
                CHANNELS 3 Zrotation Xrotation Yrotation
                End Site
                {
                    OFFSET -0.000000 -4.861111 16.527781
                }
            }
        }
    }
}
MOTION
Frames:    14
Frame Time:    0.010000
1.333589    85.206047    -49.392399    1.714154    -3.616025    -28.684095    0.951388    20.476768    0.159311    4.806933    -14.539207    9.914052    -9.293834    -12.339901    8.292219    -28.060404    -1.436804    5.865816    24.191734    66.618423    -81.378021    57.108662    -20.116871    -35.545547    86.656097    46.971832    91.322701    26.984350    -4.442805    -18.323835    -1.199953    59.329117    49.626953    -14.270433    -9.498977    67.547050    -110.244385    -5.192732    1.872199    3.594493    -19.684547    -1.457883    5.994834    37.007397    -12.663729    -12.048641    0.485080    9.589821    -6.745437    -7.878597    -7.776206    1.576702    33.354034    -9.319255    3.540915    -20.172844    2.903232    
1.512478    84.948990    -49.308334    1.633571    -3.530180    -28.997139    0.974700    20.557640    0.225546    4.576775    -15.168329    9.976633    -8.995873    -11.450150    8.465134    -28.016594    -1.432381    5.666574    24.821812    66.920601    -82.198158    57.664253    -20.069475    -35.098389    86.814941    46.615822    91.501434    27.068617    -4.434542    -18.336399    -1.097917    59.009907    49.503769    -13.946679    -9.183366    67.548607    -110.833809    -5.435412    2.006104    3.702817    -20.245852    -1.605373    6.265403    39.126896    -11.811346    -12.251910    -1.763259    7.609601    -6.967644    -8.884514    -8.521425    1.107113    35.098866    -8.277786    3.897466    -20.864981    3.134718    
1.640653    84.669556    -49.147934    1.401997    -3.681130    -29.363445    0.873560    20.899412    0.189982    4.570210    -15.227624    10.041879    -9.125938    -11.352428    8.522891    -27.586607    -1.495536    6.499287    34.546741    66.066353    -92.866043    59.794533    -19.403837    -30.541927    85.120720    44.688232    92.167099    26.970461    -4.443756    -18.378260    -2.255651    59.528751    50.925030    -14.335980    -9.689519    67.149498    -110.875687    -5.256947    1.739059    3.890686    -20.334595    -1.463951    4.955092    38.986706    -11.973301    -10.100469    -0.804247    10.140317    -7.168349    -9.391089    -8.389798    1.302689    36.479923    -8.105422    3.830474    -21.445837    3.054230    
1.810522    84.350784    -49.027378    1.260718    -3.662555    -29.730827    0.803880    20.998775    0.149470    4.454950    -15.531520    10.078820    -8.959322    -10.700201    8.631601    -27.651712    -1.433572    5.693850    26.936197    67.265022    -84.781982    59.307014    -19.312572    -33.533642    85.879517    46.155090    92.821999    27.050512    -4.423569    -18.236773    -1.987335    59.605431    50.599159    -14.331079    -9.564116    67.157501    -110.881073    -5.788392    1.588313    4.106393    -20.742804    -1.259982    3.519637    39.152092    -7.855482    -9.121756    0.318753    9.099157    -7.408814    -10.263035    -9.006074    0.886424    38.160103    -6.682700    3.834472    -22.170876    2.807887    
1.941998    84.021545    -48.812603    1.016112    -3.871827    -30.134317    0.693738    21.202860    0.132305    4.222811    -15.317477    10.140842    -8.673158    -10.628242    8.766542    -27.222281    -1.487159    6.507970    38.161011    66.622971    -96.736115    61.941631    -18.939146    -28.629332    84.311462    43.995358    92.993813    26.978680    -4.364029    -18.068235    -1.493518    59.764294    50.457310    -14.233437    -9.450347    66.875366    -111.294174    -6.190751    1.490313    4.344386    -20.775932    -0.844976    3.244796    40.152527    -8.912402    -8.784166    -0.706358    10.262254    -7.688304    -10.650099    -9.278703    0.740815    39.440201    -6.403791    4.164517    -22.709806    3.407816    
2.085237    83.674004    -48.648502    0.802941    -3.917522    -30.506170    0.771674    21.477953    0.016900    3.837628    -15.592299    10.162766    -8.522279    -10.320630    8.868379    -27.410484    -1.458705    5.798097    31.279488    67.722115    -89.900314    61.465332    -18.720543    -30.950550    85.188721    45.446804    92.900238    27.088255    -4.420599    -18.175356    -2.816381    59.894890    51.545425    -14.500241    -9.732660    66.924606    -111.725784    -5.868528    1.455480    4.631747    -21.196327    0.085079    3.452739    41.119019    -7.880249    -7.877956    -0.640560    8.747855    -7.879189    -11.299927    -9.588560    0.483707    40.916340    -5.586026    4.309027    -23.360405    3.440387    
2.236320    83.324585    -48.490448    0.597971    -3.953823    -30.793428    0.832803    21.658136    -0.106962    3.853360    -15.571197    10.295543    -8.733468    -10.265219    8.985009    -27.497217    -1.398411    5.488127    30.510956    68.113487    -88.940117    61.761021    -18.911964    -31.098362    85.499352    45.469723    92.228134    27.201103    -4.398382    -17.887339    -1.445826    59.637016    50.257561    -13.769401    -8.868229    67.277130    -114.532578    -5.601744    1.472323    4.943810    -21.723324    0.634574    3.301734    42.517696    -9.661775    -7.017391    -1.460139    10.226757    -8.041009    -11.822408    -10.009583    0.093448    42.190208    -4.438914    4.317760    -23.960020    3.206397    
2.329615    82.981346    -48.268330    0.321075    -4.119837    -31.190842    0.762585    21.780720    -0.201170    4.225373    -14.861300    10.991469    -9.167371    -10.794097    9.582418    -27.440830    -1.353279    5.428545    29.701712    68.327744    -88.249207    61.960072    -18.969025    -31.142984    85.182587    45.634644    91.837044    27.223614    -4.384845    -17.921223    -3.299010    60.141712    52.004124    -13.908031    -9.265903    67.103157    -114.947266    -5.588749    1.242856    5.278850    -22.228254    2.326808    4.214775    44.018700    -11.270499    -6.508157    -2.038730    10.295865    -8.185107    -12.068509    -10.367864    -0.312099    43.241001    -3.511507    4.446746    -24.453861    3.280532    
2.409688    82.670303    -48.068386    0.040705    -4.257141    -31.603273    0.852883    22.196426    -0.392357    3.765058    -14.930501    11.030860    -8.899660    -10.760502    9.700000    -27.589268    -1.322791    5.304638    29.733219    67.999237    -88.221245    62.077995    -18.990078    -31.049471    84.871506    46.061054    91.819031    27.336592    -4.365997    -17.632908    -2.887404    59.923878    51.658756    -13.619350    -8.921039    67.046463    -115.710121    -5.824581    1.712120    5.762313    -22.646641    3.411864    5.468812    46.034832    -14.406456    -7.011760    -3.841510    10.445636    -8.261340    -12.336166    -10.358812    -0.470438    44.198151    -3.556587    4.798670    -24.822075    3.944309    
2.559347    82.381760    -47.822174    -0.089062    -4.346591    -31.795782    0.856284    22.344070    -0.657997    3.671702    -15.110771    11.085904    -8.956228    -10.242128    9.795864    -27.789148    -1.292360    5.118824    30.001076    67.918350    -88.522614    62.144623    -18.935602    -30.857758    85.505646    46.286842    90.850273    27.496071    -4.416766    -17.782112    -5.071656    60.204575    53.625748    -13.963477    -9.365529    66.827286    -115.981377    -5.229122    1.269750    5.866409    -23.232491    3.702813    5.714861    47.440529    -15.511610    -6.907534    -3.920358    10.963354    -8.558470    -12.519153    -10.547475    -0.571537    44.998177    -2.633299    4.928668    -25.231413    3.487380    
2.635830    82.135910    -47.628681    -0.353949    -4.398670    -32.181255    0.908492    22.510809    -0.808845    3.479769    -14.645681    11.248526    -8.928771    -10.819403    9.956803    -27.911970    -1.268955    5.116376    30.835495    67.764641    -89.330238    62.369949    -18.851156    -30.421766    85.662117    46.231255    90.317062    27.576756    -4.373487    -17.474401    -5.025591    60.477997    53.735176    -14.026370    -9.303438    66.550323    -116.737068    -5.152902    1.290566    6.393167    -23.544004    3.920009    4.855321    48.754589    -14.664904    -6.025578    -4.430526    11.207302    -8.530972    -12.783507    -10.913951    -1.231868    45.794632    -1.564629    4.988942    -25.541178    3.289736    
2.808952    81.948257    -47.343739    -0.443937    -4.435798    -32.361980    0.875549    22.665697    -1.232161    3.379961    -14.624737    11.301672    -8.934609    -10.734653    10.027464    -27.904594    -1.248437    5.084643    33.532482    67.427170    -92.166359    62.955414    -18.561935    -29.106228    85.580765    45.737171    89.920029    27.817493    -4.383252    -17.372486    -4.461101    60.192932    53.158432    -13.859643    -9.073550    66.481667    -116.937752    -5.404399    1.314260    6.450193    -23.840500    3.478125    3.889191    49.657013    -13.464637    -5.611468    -4.605269    11.128309    -8.832080    -12.987844    -10.730336    -1.010688    46.483395    -1.571787    5.132087    -25.818747    3.296429    
2.922267    81.793068    -47.006248    -0.647445    -4.523067    -32.749653    0.899262    22.826569    -1.472235    3.609894    -14.168427    11.624989    -9.609977    -11.096494    10.244234    -28.145483    -1.241563    4.982020    32.838215    67.375816    -91.347580    63.029522    -18.320099    -29.109571    85.367393    45.893127    90.087570    27.876974    -4.343098    -17.171625    -5.139551    60.460659    53.853531    -14.212683    -9.441133    66.120598    -116.478882    -5.682495    1.119010    6.602643    -23.755804    3.593560    3.407387    50.198326    -12.629285    -4.940790    -4.624916    10.808654    -8.964891    -12.965124    -10.544943    -1.006854    46.898342    -1.538325    5.329433    -25.925676    3.545725    
2.992375    81.660172    -46.693497    -0.905703    -4.616654    -33.287258    0.763403    23.054192    -1.462046    3.766922    -13.868342    11.825445    -9.858774    -11.325814    10.389024    -27.999418    -1.316917    5.574318    40.753231    66.352890    -99.354614    64.493614    -17.716158    -26.024033    84.622643    44.833782    91.078369    28.066519    -4.329529    -17.018507    -5.590599    60.607483    54.350193    -14.511259    -9.615907    65.842087    -116.607780    -5.509401    0.987669    7.008553    -23.526291    4.170412    3.078177    50.594917    -13.569706    -4.039145    -4.476487    11.434490    -8.974350    -12.971151    -10.296726    -1.131585    47.295219    -1.664403    5.622099    -25.934755    4.103800    
